Coordinates
version=1
nRows=18
nColumns=63
inDegrees=yes

Units are S.I. units (second, meters, Newtons, ...)
If the header above contains a line with 'inDegrees', this indicates whether rotational values are in degrees (yes) or radians (no).

endheader
time	pelvis_tilt	pelvis_list	pelvis_rotation	pelvis_tx	pelvis_ty	pelvis_tz	hip_flexion_r	hip_adduction_r	hip_rotation_r	knee_angle_r	knee_angle_r_beta	ankle_angle_r	subtalar_angle_r	mtp_angle_r	hip_flexion_l	hip_adduction_l	hip_rotation_l	knee_angle_l	knee_angle_l_beta	ankle_angle_l	subtalar_angle_l	mtp_angle_l	L5_S1_Flex_Ext	L5_S1_Lat_Bending	L5_S1_axial_rotation	L4_L5_Flex_Ext	L4_L5_Lat_Bending	L4_L5_axial_rotation	L3_L4_Flex_Ext	L3_L4_Lat_Bending	L3_L4_axial_rotation	L2_L3_Flex_Ext	L2_L3_Lat_Bending	L2_L3_axial_rotation	L1_L2_Flex_Ext	L1_L2_Lat_Bending	L1_L2_axial_rotation	L1_T12_Flex_Ext	L1_T12_Lat_Bending	L1_T12_axial_rotation	Abs_r3	Abs_r2	Abs_r1	Abs_t1	Abs_t2	neck_flexion	neck_bending	neck_rotation	arm_flex_r	arm_add_r	arm_rot_r	elbow_flex_r	pro_sup_r	wrist_flex_r	wrist_dev_r	arm_flex_l	arm_add_l	arm_rot_l	elbow_flex_l	pro_sup_l	wrist_flex_l	wrist_dev_l
0.000000	1.871666	-2.530298	91.242678	0.190656	0.960497	0.591024	4.365623	-3.472875	-19.135232	12.552992	0.219091	34.427914	15.509193	0.000000	4.085494	-0.571043	8.091426	14.905824	0.260156	36.405940	-1.243393	0.000000	0.249931	0.099519	0.581980	0.464147	0.132361	0.618353	0.410612	0.241971	0.618353	0.285646	0.241971	0.509232	0.232086	0.202940	0.472858	0.142811	0.154155	0.436485	1.785233	1.125782	3.236796	0.000000	0.000000	26.575328	3.304528	-3.347808	14.379540	-10.976463	67.291352	41.266564	34.498115	-3.847103	0.743659	20.075226	-5.890670	72.589987	30.120578	62.798310	15.389719	2.601247
0.016667	1.734416	-2.607566	91.224256	0.191250	0.960526	0.590908	4.374389	-3.497188	-18.303888	12.193814	0.212822	34.731218	15.200217	0.000000	4.169086	-0.490814	7.787028	14.915994	0.260333	36.463088	-0.877119	0.000000	0.256121	0.085165	0.511655	0.475642	0.113270	0.543634	0.420781	0.207071	0.543634	0.292720	0.207071	0.447698	0.237834	0.173669	0.415720	0.146347	0.131921	0.383742	1.829445	0.963405	2.845674	0.000000	0.000000	26.598383	3.497096	-2.655853	14.691079	-10.514601	68.236981	40.806212	32.960403	-3.456633	0.527566	19.629456	-6.220594	70.861703	30.291361	63.964388	15.546136	2.389465
0.033333	1.639583	-2.659323	91.265987	0.191659	0.960508	0.590736	4.349634	-3.500746	-17.677530	11.887046	0.207468	34.990013	14.961808	0.000000	4.214928	-0.436468	7.639468	14.910579	0.260239	36.459585	-0.622571	0.000000	0.260956	0.074792	0.443039	0.484622	0.099473	0.470729	0.428725	0.181849	0.470729	0.298247	0.181849	0.387659	0.242324	0.152515	0.359969	0.149111	0.115853	0.332279	1.863986	0.846060	2.464048	0.000000	0.000000	26.615468	3.664231	-2.101607	14.936408	-10.150115	68.989218	40.452370	31.923512	-3.188483	0.377430	19.252556	-6.510358	69.446580	30.460611	64.834473	15.720953	2.301265
0.050000	1.582871	-2.688140	91.361022	0.191901	0.960449	0.590515	4.295102	-3.486025	-17.236956	11.629105	0.202966	35.206329	14.786426	0.000000	4.227036	-0.405127	7.633183	14.891461	0.259905	36.402336	-0.470357	0.000000	0.264566	0.068025	0.376293	0.491326	0.090473	0.399812	0.434656	0.165395	0.399812	0.302373	0.165395	0.329257	0.245676	0.138716	0.305738	0.151173	0.105370	0.282220	1.889771	0.769508	2.092831	0.000000	0.000000	26.627262	3.807595	-1.672292	15.121723	-9.873992	69.567166	40.194351	31.331690	-3.030106	0.285475	18.938398	-6.762522	68.316072	30.627779	65.441013	15.908869	2.320743
0.066667	1.559986	-2.696586	91.502512	0.191993	0.960355	0.590251	4.214532	-3.455505	-16.962964	11.416407	0.199254	35.382196	14.666534	0.000000	4.209426	-0.393914	7.752612	14.860526	0.259365	36.298243	-0.411085	0.000000	0.267079	0.064489	0.311583	0.495992	0.085770	0.331057	0.438783	0.156798	0.331057	0.305244	0.156798	0.272636	0.248009	0.131505	0.253162	0.152609	0.099893	0.233688	1.907715	0.729509	1.732934	0.000000	0.000000	26.634442	3.928847	-1.355133	15.253221	-9.677214	69.989927	40.021464	31.129184	-2.968954	0.243926	18.680854	-6.979646	67.441632	30.792318	65.816457	16.104581	2.431999
0.083333	1.566633	-2.687234	91.683607	0.191952	0.960231	0.589951	4.111668	-3.411665	-16.836351	11.245367	0.196269	35.519645	14.594594	0.000000	4.166113	-0.399949	7.982195	14.819659	0.258652	36.154212	-0.435362	0.000000	0.268621	0.063810	0.249073	0.498856	0.084867	0.264640	0.441317	0.155147	0.264640	0.307007	0.155147	0.217939	0.249441	0.130120	0.202372	0.153490	0.098841	0.186805	1.918733	0.721826	1.385268	0.000000	0.000000	26.637686	4.029648	-1.137353	15.337097	-9.550768	70.276603	39.923022	31.260241	-2.992480	0.245008	18.473795	-7.164288	66.794715	30.953681	65.993254	16.302788	2.619131
0.100000	1.598517	-2.662654	91.897459	0.191796	0.960082	0.589621	3.990251	-3.356982	-16.837916	11.112401	0.193948	35.620705	14.563065	0.000000	4.101115	-0.420353	8.306370	14.770745	0.257798	35.977145	-0.533794	0.000000	0.269322	0.065612	0.188925	0.500158	0.087264	0.200733	0.442469	0.159530	0.200733	0.307808	0.159530	0.165309	0.250092	0.133797	0.153502	0.153890	0.101633	0.141694	1.923739	0.742220	1.050745	0.000000	0.000000	26.637673	4.111657	-1.006175	15.379549	-9.485638	70.446299	39.888334	31.669108	-3.088136	0.280946	18.311094	-7.319009	66.346773	31.111317	66.003852	16.498189	2.866237
0.116667	1.651344	-2.625416	92.137219	0.191541	0.959913	0.589269	3.854023	-3.293936	-16.948456	11.013926	0.192229	35.687405	14.564411	0.000000	4.018447	-0.452247	8.709577	14.715669	0.256837	35.773948	-0.696990	0.000000	0.269309	0.069522	0.131304	0.500134	0.092465	0.139511	0.442448	0.169037	0.139511	0.307793	0.169037	0.114891	0.250080	0.141770	0.106685	0.153883	0.107690	0.098478	1.923648	0.786451	0.730276	0.000000	0.000000	26.635078	4.176534	-0.948823	15.386773	-9.472809	70.518115	39.906714	32.300032	-3.243375	0.343965	18.186620	-7.446369	66.069260	31.264680	65.880699	16.685481	3.157415
0.133333	1.720818	-2.578092	92.396038	0.191205	0.959731	0.588899	3.706726	-3.225004	-17.148769	10.946358	0.191050	35.721778	14.591092	0.000000	3.922125	-0.492754	9.176253	14.656315	0.255801	35.551524	-0.915557	0.000000	0.268711	0.075165	0.076375	0.499023	0.099969	0.081148	0.441465	0.182756	0.081148	0.307110	0.182756	0.066828	0.249525	0.153276	0.062054	0.153541	0.116431	0.057281	1.919375	0.850282	0.424772	0.000000	0.000000	26.630582	4.225941	-0.952522	15.364966	-9.503265	70.511155	39.967471	33.097260	-3.445649	0.426289	18.094246	-7.548926	65.933629	31.413221	65.656245	16.859365	3.476765
0.150000	1.802646	-2.523252	92.667067	0.190804	0.959539	0.588521	3.552102	-3.152666	-17.419653	10.906112	0.190348	35.725851	14.635569	0.000000	3.816166	-0.538994	9.690838	14.594570	0.254723	35.316777	-1.180102	0.000000	0.267655	0.082165	0.024299	0.497062	0.109280	0.025818	0.439731	0.199777	0.025818	0.305903	0.199777	0.021262	0.248545	0.167552	0.019743	0.152938	0.127274	0.018225	1.911834	0.929472	0.135146	0.000000	0.000000	26.624860	4.261537	-1.004494	15.320323	-9.567991	70.444521	40.059917	34.005039	-3.682411	0.520144	18.027844	-7.629240	65.911335	31.556393	65.362938	17.014537	3.808385
0.166667	1.892533	-2.463466	92.943456	0.190357	0.959345	0.588139	3.393892	-3.079400	-17.741905	10.889604	0.190059	35.701656	14.690305	0.000000	3.704585	-0.588089	10.237771	14.532316	0.253637	35.076611	-1.481233	0.000000	0.266270	0.090149	-0.024757	0.494490	0.119898	-0.026305	0.437455	0.219188	-0.026305	0.304320	0.219188	-0.021663	0.247258	0.183832	-0.020115	0.152147	0.139641	-0.018568	1.901940	1.019785	-0.137692	0.000000	0.000000	26.618591	4.284982	-1.091963	15.259042	-9.657973	70.337316	40.173362	34.967617	-3.941113	0.617755	17.981285	-7.689872	65.973830	31.693647	65.033227	17.145696	4.136372
0.183333	1.974989	-2.399871	93.210740	0.189902	0.959129	0.587771	3.234432	-3.018506	-18.075300	10.905138	0.190331	35.655654	14.731079	0.000000	3.593725	-0.629278	10.766721	14.473793	0.252615	34.859875	-1.791502	0.000000	0.264228	0.097101	-0.066087	0.490698	0.129144	-0.070218	0.434100	0.236091	-0.070218	0.301986	0.236091	-0.057826	0.245362	0.198008	-0.053696	0.150980	0.150409	-0.049565	1.887356	1.098426	-0.367558	0.000000	0.000000	26.612361	4.297769	-1.224249	15.184166	-9.759804	70.240390	40.285332	35.775557	-4.174848	0.624223	17.967663	-7.705066	66.119578	31.778257	64.865867	17.297412	4.391996
0.200000	2.058951	-2.338870	93.455628	0.189450	0.958952	0.587412	3.083727	-2.953736	-18.366111	10.926309	0.190700	35.566542	14.721204	0.000000	3.483454	-0.669035	11.302229	14.416377	0.251613	34.627198	-2.133384	0.000000	0.262328	0.105058	-0.103455	0.487170	0.139727	-0.109921	0.430979	0.255437	-0.109921	0.299815	0.255437	-0.090523	0.243598	0.214234	-0.084057	0.149894	0.162734	-0.077591	1.873784	1.188433	-0.575387	0.000000	0.000000	26.607399	4.296442	-1.344765	15.101294	-9.855918	70.102803	40.375918	36.656156	-4.411515	0.690608	17.997729	-7.721422	66.448791	31.837095	64.502098	17.360497	4.518871
0.216667	2.139071	-2.288401	93.703366	0.188966	0.958807	0.587067	2.942801	-2.897261	-18.689759	10.945957	0.191043	35.448439	14.733015	0.000000	3.387735	-0.690971	11.929528	14.367985	0.250769	34.376746	-2.596185	0.000000	0.261532	0.113611	-0.147487	0.485690	0.151102	-0.156705	0.429670	0.276233	-0.156705	0.298904	0.276233	-0.129051	0.242858	0.231675	-0.119833	0.149439	0.175983	-0.110615	1.868094	1.285186	-0.820277	0.000000	0.000000	26.604526	4.297599	-1.404011	15.053374	-9.938662	70.081551	40.436674	37.298700	-4.616194	0.755665	17.980038	-7.749084	66.616079	31.937554	64.264494	17.329527	4.642256
0.233333	2.208927	-2.247634	93.911074	0.188536	0.958687	0.586748	2.824444	-2.848750	-18.960753	10.975572	0.191560	35.309917	14.716393	0.000000	3.306855	-0.710106	12.465011	14.329810	0.250102	34.165564	-2.985979	0.000000	0.261137	0.121649	-0.189873	0.484958	0.161793	-0.201740	0.429022	0.295776	-0.201740	0.298454	0.295776	-0.166139	0.242492	0.248066	-0.154272	0.149214	0.188434	-0.142405	1.865276	1.376113	-1.056018	0.000000	0.000000	26.607921	4.306801	-1.415182	15.038755	-9.998945	70.165490	40.470051	37.630785	-4.780519	0.819798	17.902027	-7.784657	66.555711	32.070105	64.266620	17.270695	4.717798
0.250000	2.264846	-2.217722	94.084928	0.188153	0.958586	0.586458	2.728020	-2.812966	-19.187167	11.013696	0.192225	35.164024	14.682441	0.000000	3.244677	-0.718418	12.938760	14.304197	0.249655	34.000012	-3.350008	0.000000	0.261385	0.128530	-0.228042	0.485418	0.170945	-0.242294	0.429429	0.312508	-0.242294	0.298737	0.312508	-0.199536	0.242722	0.262099	-0.185284	0.149355	0.199093	-0.171031	1.867047	1.453959	-1.268299	0.000000	0.000000	26.617453	4.312696	-1.405988	15.034744	-10.041504	70.294667	40.486197	37.711547	-4.912359	0.852551	17.766481	-7.819776	66.286495	32.235678	64.463818	17.167396	4.786914
0.266667	2.303681	-2.195762	94.242719	0.187812	0.958498	0.586204	2.645995	-2.794485	-19.408607	11.057819	0.192995	35.025612	14.658536	0.000000	3.202672	-0.715012	13.345213	14.292260	0.249447	33.900521	-3.658449	0.000000	0.261951	0.133681	-0.263248	0.486470	0.177796	-0.279701	0.430360	0.325033	-0.279701	0.299384	0.325033	-0.230342	0.243248	0.272603	-0.213889	0.149679	0.207073	-0.197436	1.871091	1.512232	-1.464106	0.000000	0.000000	26.631458	4.322589	-1.370344	15.038988	-10.068647	70.451762	40.493454	37.573544	-5.019454	0.843875	17.582329	-7.854897	65.831242	32.432208	64.847075	17.028435	4.866993
0.283333	2.322327	-2.179848	94.360913	0.187548	0.958426	0.585999	2.582621	-2.796154	-19.595734	11.111627	0.193934	34.902432	14.644294	0.000000	3.177001	-0.704532	13.606751	14.289919	0.249406	33.878757	-3.848151	0.000000	0.262310	0.136575	-0.289473	0.487136	0.181645	-0.307565	0.430949	0.332070	-0.307565	0.299794	0.332070	-0.253289	0.243581	0.278505	-0.235197	0.149884	0.211555	-0.217105	1.873653	1.544969	-1.609964	0.000000	0.000000	26.647459	4.324137	-1.340173	15.050970	-10.078675	70.618010	40.489039	37.236784	-5.105173	0.779040	17.362232	-7.881614	65.212153	32.636253	65.442985	16.855624	4.925806
